<?xml version="1.0" encoding="utf-8" standalone="no"?>
<!DOCTYPE svg PUBLIC "-//W3C//DTD SVG 1.1//EN"
  "http://www.w3.org/Graphics/SVG/1.1/DTD/svg11.dtd">
<svg xmlns:xlink="http://www.w3.org/1999/xlink" width="948.019922pt" height="538.840406pt" viewBox="0 0 948.019922 538.840406" xmlns="http://www.w3.org/2000/svg" version="1.1">
 <metadata>
  <rdf:RDF xmlns:dc="http://purl.org/dc/elements/1.1/" xmlns:cc="http://creativecommons.org/ns#" xmlns:rdf="http://www.w3.org/1999/02/22-rdf-syntax-ns#">
   <cc:Work>
    <dc:type rdf:resource="http://purl.org/dc/dcmitype/StillImage"/>
    <dc:date>2026-06-25T14:52:46.170082</dc:date>
    <dc:format>image/svg+xml</dc:format>
    <dc:creator>
     <cc:Agent>
      <dc:title>Matplotlib v3.10.9, https://matplotlib.org/</dc:title>
     </cc:Agent>
    </dc:creator>
   </cc:Work>
  </rdf:RDF>
 </metadata>
 <defs>
  <style type="text/css">*{stroke-linejoin: round; stroke-linecap: butt}</style>
 </defs>
 <g id="figure_1">
  <g id="patch_1">
   <path d="M 0 538.840406 
L 948.019922 538.840406 
L 948.019922 0 
L 0 0 
z
" style="fill: #ffffff"/>
  </g>
  <g id="axes_1">
   <g id="LineCollection_1">
    <path d="M 247.826218 193.812342 
L 341.892514 289.160728 
" clip-path="url(#pa2dfef6601)" style="fill: none; stroke: #c9d6e8; stroke-opacity: 0.75; stroke-width: 1.1"/>
    <path d="M 247.826218 193.812342 
L 295.775423 112.035931 
" clip-path="url(#pa2dfef6601)" style="fill: none; stroke: #c9d6e8; stroke-opacity: 0.75; stroke-width: 0.74"/>
    <path d="M 247.826218 193.812342 
L 169.199653 118.186755 
" clip-path="url(#pa2dfef6601)" style="fill: none; stroke: #c9d6e8; stroke-opacity: 0.75; stroke-width: 0.74"/>
    <path d="M 247.826218 193.812342 
L 125.344897 147.19257 
" clip-path="url(#pa2dfef6601)" style="fill: none; stroke: #c9d6e8; stroke-opacity: 0.75; stroke-width: 0.74"/>
    <path d="M 247.826218 193.812342 
L 228.833301 104.456594 
" clip-path="url(#pa2dfef6601)" style="fill: none; stroke: #c9d6e8; stroke-opacity: 0.75; stroke-width: 0.74"/>
    <path d="M 247.826218 193.812342 
L 109.995308 188.849515 
" clip-path="url(#pa2dfef6601)" style="fill: none; stroke: #c9d6e8; stroke-opacity: 0.75; stroke-width: 0.74"/>
    <path d="M 247.826218 193.812342 
L 361.586914 276.684386 
" clip-path="url(#pa2dfef6601)" style="fill: none; stroke: #c9d6e8; stroke-opacity: 0.75; stroke-width: 0.62"/>
    <path d="M 361.586914 276.684386 
L 355.165376 298.091394 
" clip-path="url(#pa2dfef6601)" style="fill: none; stroke: #c9d6e8; stroke-opacity: 0.75; stroke-width: 10.46"/>
    <path d="M 361.586914 276.684386 
L 359.904185 288.648963 
" clip-path="url(#pa2dfef6601)" style="fill: none; stroke: #c9d6e8; stroke-opacity: 0.75; stroke-width: 5.78"/>
    <path d="M 361.586914 276.684386 
L 336.596716 271.757362 
" clip-path="url(#pa2dfef6601)" style="fill: none; stroke: #c9d6e8; stroke-opacity: 0.75; stroke-width: 5.54"/>
    <path d="M 361.586914 276.684386 
L 371.938917 298.333583 
" clip-path="url(#pa2dfef6601)" style="fill: none; stroke: #c9d6e8; stroke-opacity: 0.75; stroke-width: 5.42"/>
    <path d="M 361.586914 276.684386 
L 387.823329 253.060117 
" clip-path="url(#pa2dfef6601)" style="fill: none; stroke: #c9d6e8; stroke-opacity: 0.75; stroke-width: 5.42"/>
    <path d="M 361.586914 276.684386 
L 328.411249 283.428847 
" clip-path="url(#pa2dfef6601)" style="fill: none; stroke: #c9d6e8; stroke-opacity: 0.75; stroke-width: 4.94"/>
    <path d="M 361.586914 276.684386 
L 348.001826 322.077099 
" clip-path="url(#pa2dfef6601)" style="fill: none; stroke: #c9d6e8; stroke-opacity: 0.75; stroke-width: 0.74"/>
    <path d="M 361.586914 276.684386 
L 341.892514 289.160728 
" clip-path="url(#pa2dfef6601)" style="fill: none; stroke: #c9d6e8; stroke-opacity: 0.75; stroke-width: 2.78"/>
    <path d="M 348.001826 322.077099 
L 341.940929 309.096977 
" clip-path="url(#pa2dfef6601)" style="fill: none; stroke: #c9d6e8; stroke-opacity: 0.75; stroke-width: 6.74"/>
    <path d="M 348.001826 322.077099 
L 355.165376 298.091394 
" clip-path="url(#pa2dfef6601)" style="fill: none; stroke: #c9d6e8; stroke-opacity: 0.75; stroke-width: 5.78"/>
    <path d="M 348.001826 322.077099 
L 321.646715 349.878144 
" clip-path="url(#pa2dfef6601)" style="fill: none; stroke: #c9d6e8; stroke-opacity: 0.75; stroke-width: 3.86"/>
    <path d="M 348.001826 322.077099 
L 362.526088 353.103272 
" clip-path="url(#pa2dfef6601)" style="fill: none; stroke: #c9d6e8; stroke-opacity: 0.75; stroke-width: 3.74"/>
    <path d="M 348.001826 322.077099 
L 371.938917 298.333583 
" clip-path="url(#pa2dfef6601)" style="fill: none; stroke: #c9d6e8; stroke-opacity: 0.75; stroke-width: 3.14"/>
    <path d="M 348.001826 322.077099 
L 359.904185 288.648963 
" clip-path="url(#pa2dfef6601)" style="fill: none; stroke: #c9d6e8; stroke-opacity: 0.75; stroke-width: 2.78"/>
    <path d="M 348.001826 322.077099 
L 215.947853 367.085034 
" clip-path="url(#pa2dfef6601)" style="fill: none; stroke: #c9d6e8; stroke-opacity: 0.75; stroke-width: 0.62"/>
    <path d="M 348.001826 322.077099 
L 341.892514 289.160728 
" clip-path="url(#pa2dfef6601)" style="fill: none; stroke: #c9d6e8; stroke-opacity: 0.75; stroke-width: 2.18"/>
    <path d="M 341.892514 289.160728 
L 328.411249 283.428847 
" clip-path="url(#pa2dfef6601)" style="fill: none; stroke: #c9d6e8; stroke-opacity: 0.75; stroke-width: 39.98"/>
    <path d="M 341.892514 289.160728 
L 355.165376 298.091394 
" clip-path="url(#pa2dfef6601)" style="fill: none; stroke: #c9d6e8; stroke-opacity: 0.75; stroke-width: 24.98"/>
    <path d="M 341.892514 289.160728 
L 359.904185 288.648963 
" clip-path="url(#pa2dfef6601)" style="fill: none; stroke: #c9d6e8; stroke-opacity: 0.75; stroke-width: 19.58"/>
    <path d="M 341.892514 289.160728 
L 336.596716 271.757362 
" clip-path="url(#pa2dfef6601)" style="fill: none; stroke: #c9d6e8; stroke-opacity: 0.75; stroke-width: 15.98"/>
    <path d="M 341.892514 289.160728 
L 371.938917 298.333583 
" clip-path="url(#pa2dfef6601)" style="fill: none; stroke: #c9d6e8; stroke-opacity: 0.75; stroke-width: 13.94"/>
    <path d="M 341.892514 289.160728 
L 341.940929 309.096977 
" clip-path="url(#pa2dfef6601)" style="fill: none; stroke: #c9d6e8; stroke-opacity: 0.75; stroke-width: 13.94"/>
    <path d="M 341.892514 289.160728 
L 215.947853 367.085034 
" clip-path="url(#pa2dfef6601)" style="fill: none; stroke: #c9d6e8; stroke-opacity: 0.75; stroke-width: 0.62"/>
    <path d="M 341.892514 289.160728 
L 476.863693 361.564374 
" clip-path="url(#pa2dfef6601)" style="fill: none; stroke: #c9d6e8; stroke-opacity: 0.75; stroke-width: 0.62"/>
    <path d="M 476.863693 361.564374 
L 355.165376 298.091394 
" clip-path="url(#pa2dfef6601)" style="fill: none; stroke: #c9d6e8; stroke-opacity: 0.75; stroke-width: 0.74"/>
    <path d="M 476.863693 361.564374 
L 371.938917 298.333583 
" clip-path="url(#pa2dfef6601)" style="fill: none; stroke: #c9d6e8; stroke-opacity: 0.75; stroke-width: 0.74"/>
    <path d="M 476.863693 361.564374 
L 592.400145 394.806236 
" clip-path="url(#pa2dfef6601)" style="fill: none; stroke: #c9d6e8; stroke-opacity: 0.75; stroke-width: 0.74"/>
    <path d="M 476.863693 361.564374 
L 341.940929 309.096977 
" clip-path="url(#pa2dfef6601)" style="fill: none; stroke: #c9d6e8; stroke-opacity: 0.75; stroke-width: 0.74"/>
    <path d="M 476.863693 361.564374 
L 512.100709 442.915482 
" clip-path="url(#pa2dfef6601)" style="fill: none; stroke: #c9d6e8; stroke-opacity: 0.75; stroke-width: 0.74"/>
    <path d="M 476.863693 361.564374 
L 597.015012 465.864219 
" clip-path="url(#pa2dfef6601)" style="fill: none; stroke: #c9d6e8; stroke-opacity: 0.75; stroke-width: 0.62"/>
    <path d="M 476.863693 361.564374 
L 674.804692 374.308947 
" clip-path="url(#pa2dfef6601)" style="fill: none; stroke: #c9d6e8; stroke-opacity: 0.75; stroke-width: 0.62"/>
   </g>
   <g id="PathCollection_1">
    <path d="M 247.826218 205.214096 
C 250.849999 205.214096 253.75034 204.012735 255.888476 201.8746 
C 258.026612 199.736464 259.227972 196.836122 259.227972 193.812342 
C 259.227972 190.788561 258.026612 187.88822 255.888476 185.750084 
C 253.75034 183.611948 250.849999 182.410588 247.826218 182.410588 
C 244.802437 182.410588 241.902096 183.611948 239.76396 185.750084 
C 237.625825 187.88822 236.424464 190.788561 236.424464 193.812342 
C 236.424464 196.836122 237.625825 199.736464 239.76396 201.8746 
C 241.902096 204.012735 244.802437 205.214096 247.826218 205.214096 
z
" clip-path="url(#pa2dfef6601)" style="fill: #1d3557; stroke: #ffffff; stroke-width: 1.3"/>
    <path d="M 361.586914 288.08614 
C 364.610694 288.08614 367.511036 286.884779 369.649171 284.746643 
C 371.787307 282.608508 372.988668 279.708166 372.988668 276.684386 
C 372.988668 273.660605 371.787307 270.760264 369.649171 268.622128 
C 367.511036 266.483992 364.610694 265.282631 361.586914 265.282631 
C 358.563133 265.282631 355.662792 266.483992 353.524656 268.622128 
C 351.38652 270.760264 350.185159 273.660605 350.185159 276.684386 
C 350.185159 279.708166 351.38652 282.608508 353.524656 284.746643 
C 355.662792 286.884779 358.563133 288.08614 361.586914 288.08614 
z
" clip-path="url(#pa2dfef6601)" style="fill: #1d3557; stroke: #ffffff; stroke-width: 1.3"/>
    <path d="M 348.001826 333.478853 
C 351.025607 333.478853 353.925948 332.277492 356.064084 330.139356 
C 358.20222 328.001221 359.40358 325.100879 359.40358 322.077099 
C 359.40358 319.053318 358.20222 316.152977 356.064084 314.014841 
C 353.925948 311.876705 351.025607 310.675344 348.001826 310.675344 
C 344.978046 310.675344 342.077704 311.876705 339.939568 314.014841 
C 337.801433 316.152977 336.600072 319.053318 336.600072 322.077099 
C 336.600072 325.100879 337.801433 328.001221 339.939568 330.139356 
C 342.077704 332.277492 344.978046 333.478853 348.001826 333.478853 
z
" clip-path="url(#pa2dfef6601)" style="fill: #1d3557; stroke: #ffffff; stroke-width: 1.3"/>
    <path d="M 341.892514 300.562482 
C 344.916294 300.562482 347.816636 299.361122 349.954772 297.222986 
C 352.092907 295.08485 353.294268 292.184509 353.294268 289.160728 
C 353.294268 286.136947 352.092907 283.236606 349.954772 281.09847 
C 347.816636 278.960335 344.916294 277.758974 341.892514 277.758974 
C 338.868733 277.758974 335.968392 278.960335 333.830256 281.09847 
C 331.69212 283.236606 330.49076 286.136947 330.49076 289.160728 
C 330.49076 292.184509 331.69212 295.08485 333.830256 297.222986 
C 335.968392 299.361122 338.868733 300.562482 341.892514 300.562482 
z
" clip-path="url(#pa2dfef6601)" style="fill: #1d3557; stroke: #ffffff; stroke-width: 1.3"/>
    <path d="M 215.947853 376.571867 
C 218.46379 376.571867 220.87702 375.572275 222.656057 373.793238 
C 224.435093 372.014202 225.434686 369.600972 225.434686 367.085034 
C 225.434686 364.569097 224.435093 362.155867 222.656057 360.37683 
C 220.87702 358.597794 218.46379 357.598201 215.947853 357.598201 
C 213.431915 357.598201 211.018685 358.597794 209.239649 360.37683 
C 207.460612 362.155867 206.46102 364.569097 206.46102 367.085034 
C 206.46102 369.600972 207.460612 372.014202 209.239649 373.793238 
C 211.018685 375.572275 213.431915 376.571867 215.947853 376.571867 
z
" clip-path="url(#pa2dfef6601)" style="fill: #e63946; stroke: #ffffff; stroke-width: 1.3"/>
    <path d="M 476.863693 372.966128 
C 479.887473 372.966128 482.787815 371.764767 484.92595 369.626631 
C 487.064086 367.488496 488.265447 364.588154 488.265447 361.564374 
C 488.265447 358.540593 487.064086 355.640252 484.92595 353.502116 
C 482.787815 351.36398 479.887473 350.162619 476.863693 350.162619 
C 473.839912 350.162619 470.939571 351.36398 468.801435 353.502116 
C 466.663299 355.640252 465.461938 358.540593 465.461938 361.564374 
C 465.461938 364.588154 466.663299 367.488496 468.801435 369.626631 
C 470.939571 371.764767 473.839912 372.966128 476.863693 372.966128 
z
" clip-path="url(#pa2dfef6601)" style="fill: #1d3557; stroke: #ffffff; stroke-width: 1.3"/>
    <path d="M 674.804692 383.79578 
C 677.32063 383.79578 679.73386 382.796187 681.512896 381.017151 
C 683.291932 379.238114 684.291525 376.824884 684.291525 374.308947 
C 684.291525 371.793009 683.291932 369.37978 681.512896 367.600743 
C 679.73386 365.821707 677.32063 364.822114 674.804692 364.822114 
C 672.288755 364.822114 669.875525 365.821707 668.096488 367.600743 
C 666.317452 369.37978 665.317859 371.793009 665.317859 374.308947 
C 665.317859 376.824884 666.317452 379.238114 668.096488 381.017151 
C 669.875525 382.796187 672.288755 383.79578 674.804692 383.79578 
z
" clip-path="url(#pa2dfef6601)" style="fill: #e63946; stroke: #ffffff; stroke-width: 1.3"/>
    <path d="M 295.775423 127.768063 
C 299.947633 127.768063 303.949522 126.110427 306.899721 123.160228 
C 309.849919 120.21003 311.507556 116.208141 311.507556 112.035931 
C 311.507556 107.86372 309.849919 103.861831 306.899721 100.911633 
C 303.949522 97.961435 299.947633 96.303798 295.775423 96.303798 
C 291.603213 96.303798 287.601323 97.961435 284.651125 100.911633 
C 281.700927 103.861831 280.04329 107.86372 280.04329 112.035931 
C 280.04329 116.208141 281.700927 120.21003 284.651125 123.160228 
C 287.601323 126.110427 291.603213 127.768063 295.775423 127.768063 
z
" clip-path="url(#pa2dfef6601)" style="fill: #d7e6f7; stroke: #ffffff; stroke-width: 1.3"/>
    <path d="M 169.199653 133.918888 
C 173.371863 133.918888 177.373752 132.261251 180.32395 129.311053 
C 183.274149 126.360855 184.931785 122.358966 184.931785 118.186755 
C 184.931785 114.014545 183.274149 110.012656 180.32395 107.062458 
C 177.373752 104.112259 173.371863 102.454623 169.199653 102.454623 
C 165.027442 102.454623 161.025553 104.112259 158.075355 107.062458 
C 155.125157 110.012656 153.46752 114.014545 153.46752 118.186755 
C 153.46752 122.358966 155.125157 126.360855 158.075355 129.311053 
C 161.025553 132.261251 165.027442 133.918888 169.199653 133.918888 
z
" clip-path="url(#pa2dfef6601)" style="fill: #d7e6f7; stroke: #ffffff; stroke-width: 1.3"/>
    <path d="M 125.344897 162.924703 
C 129.517108 162.924703 133.518997 161.267066 136.469195 158.316868 
C 139.419393 155.36667 141.07703 151.36478 141.07703 147.19257 
C 141.07703 143.02036 139.419393 139.018471 136.469195 136.068272 
C 133.518997 133.118074 129.517108 131.460437 125.344897 131.460437 
C 121.172687 131.460437 117.170798 133.118074 114.2206 136.068272 
C 111.270401 139.018471 109.612765 143.02036 109.612765 147.19257 
C 109.612765 151.36478 111.270401 155.36667 114.2206 158.316868 
C 117.170798 161.267066 121.172687 162.924703 125.344897 162.924703 
z
" clip-path="url(#pa2dfef6601)" style="fill: #d7e6f7; stroke: #ffffff; stroke-width: 1.3"/>
    <path d="M 228.833301 120.188727 
C 233.005511 120.188727 237.0074 118.53109 239.957599 115.580892 
C 242.907797 112.630693 244.565434 108.628804 244.565434 104.456594 
C 244.565434 100.284384 242.907797 96.282494 239.957599 93.332296 
C 237.0074 90.382098 233.005511 88.724461 228.833301 88.724461 
C 224.661091 88.724461 220.659201 90.382098 217.709003 93.332296 
C 214.758805 96.282494 213.101168 100.284384 213.101168 104.456594 
C 213.101168 108.628804 214.758805 112.630693 217.709003 115.580892 
C 220.659201 118.53109 224.661091 120.188727 228.833301 120.188727 
z
" clip-path="url(#pa2dfef6601)" style="fill: #d7e6f7; stroke: #ffffff; stroke-width: 1.3"/>
    <path d="M 109.995308 204.581648 
C 114.167518 204.581648 118.169407 202.924011 121.119606 199.973813 
C 124.069804 197.023614 125.727441 193.021725 125.727441 188.849515 
C 125.727441 184.677305 124.069804 180.675415 121.119606 177.725217 
C 118.169407 174.775019 114.167518 173.117382 109.995308 173.117382 
C 105.823098 173.117382 101.821208 174.775019 98.87101 177.725217 
C 95.920812 180.675415 94.263175 184.677305 94.263175 188.849515 
C 94.263175 193.021725 95.920812 197.023614 98.87101 199.973813 
C 101.821208 202.924011 105.823098 204.581648 109.995308 204.581648 
z
" clip-path="url(#pa2dfef6601)" style="fill: #d7e6f7; stroke: #ffffff; stroke-width: 1.3"/>
    <path d="M 355.165376 313.823527 
C 359.337586 313.823527 363.339476 312.16589 366.289674 309.215692 
C 369.239872 306.265494 370.897509 302.263604 370.897509 298.091394 
C 370.897509 293.919184 369.239872 289.917295 366.289674 286.967096 
C 363.339476 284.016898 359.337586 282.359261 355.165376 282.359261 
C 350.993166 282.359261 346.991277 284.016898 344.041078 286.967096 
C 341.09088 289.917295 339.433243 293.919184 339.433243 298.091394 
C 339.433243 302.263604 341.09088 306.265494 344.041078 309.215692 
C 346.991277 312.16589 350.993166 313.823527 355.165376 313.823527 
z
" clip-path="url(#pa2dfef6601)" style="fill: #d7e6f7; stroke: #ffffff; stroke-width: 1.3"/>
    <path d="M 359.904185 304.381096 
C 364.076396 304.381096 368.078285 302.723459 371.028483 299.773261 
C 373.978681 296.823062 375.636318 292.821173 375.636318 288.648963 
C 375.636318 284.476752 373.978681 280.474863 371.028483 277.524665 
C 368.078285 274.574467 364.076396 272.91683 359.904185 272.91683 
C 355.731975 272.91683 351.730086 274.574467 348.779887 277.524665 
C 345.829689 280.474863 344.172052 284.476752 344.172052 288.648963 
C 344.172052 292.821173 345.829689 296.823062 348.779887 299.773261 
C 351.730086 302.723459 355.731975 304.381096 359.904185 304.381096 
z
" clip-path="url(#pa2dfef6601)" style="fill: #d7e6f7; stroke: #ffffff; stroke-width: 1.3"/>
    <path d="M 336.596716 287.489495 
C 340.768926 287.489495 344.770816 285.831858 347.721014 282.88166 
C 350.671212 279.931461 352.328849 275.929572 352.328849 271.757362 
C 352.328849 267.585152 350.671212 263.583262 347.721014 260.633064 
C 344.770816 257.682866 340.768926 256.025229 336.596716 256.025229 
C 332.424506 256.025229 328.422617 257.682866 325.472418 260.633064 
C 322.52222 263.583262 320.864583 267.585152 320.864583 271.757362 
C 320.864583 275.929572 322.52222 279.931461 325.472418 282.88166 
C 328.422617 285.831858 332.424506 287.489495 336.596716 287.489495 
z
" clip-path="url(#pa2dfef6601)" style="fill: #d7e6f7; stroke: #ffffff; stroke-width: 1.3"/>
    <path d="M 371.938917 314.065715 
C 376.111127 314.065715 380.113017 312.408079 383.063215 309.45788 
C 386.013413 306.507682 387.67105 302.505793 387.67105 298.333583 
C 387.67105 294.161372 386.013413 290.159483 383.063215 287.209285 
C 380.113017 284.259087 376.111127 282.60145 371.938917 282.60145 
C 367.766707 282.60145 363.764818 284.259087 360.814619 287.209285 
C 357.864421 290.159483 356.206784 294.161372 356.206784 298.333583 
C 356.206784 302.505793 357.864421 306.507682 360.814619 309.45788 
C 363.764818 312.408079 367.766707 314.065715 371.938917 314.065715 
z
" clip-path="url(#pa2dfef6601)" style="fill: #d7e6f7; stroke: #ffffff; stroke-width: 1.3"/>
    <path d="M 387.823329 268.79225 
C 391.99554 268.79225 395.997429 267.134613 398.947627 264.184415 
C 401.897825 261.234217 403.555462 257.232327 403.555462 253.060117 
C 403.555462 248.887907 401.897825 244.886018 398.947627 241.935819 
C 395.997429 238.985621 391.99554 237.327984 387.823329 237.327984 
C 383.651119 237.327984 379.64923 238.985621 376.699031 241.935819 
C 373.748833 244.886018 372.091196 248.887907 372.091196 253.060117 
C 372.091196 257.232327 373.748833 261.234217 376.699031 264.184415 
C 379.64923 267.134613 383.651119 268.79225 387.823329 268.79225 
z
" clip-path="url(#pa2dfef6601)" style="fill: #d7e6f7; stroke: #ffffff; stroke-width: 1.3"/>
    <path d="M 328.411249 299.16098 
C 332.583459 299.16098 336.585348 297.503343 339.535546 294.553145 
C 342.485745 291.602947 344.143381 287.601058 344.143381 283.428847 
C 344.143381 279.256637 342.485745 275.254748 339.535546 272.30455 
C 336.585348 269.354351 332.583459 267.696715 328.411249 267.696715 
C 324.239038 267.696715 320.237149 269.354351 317.286951 272.30455 
C 314.336753 275.254748 312.679116 279.256637 312.679116 283.428847 
C 312.679116 287.601058 314.336753 291.602947 317.286951 294.553145 
C 320.237149 297.503343 324.239038 299.16098 328.411249 299.16098 
z
" clip-path="url(#pa2dfef6601)" style="fill: #d7e6f7; stroke: #ffffff; stroke-width: 1.3"/>
    <path d="M 341.940929 324.82911 
C 346.113139 324.82911 350.115028 323.171473 353.065227 320.221275 
C 356.015425 317.271076 357.673062 313.269187 357.673062 309.096977 
C 357.673062 304.924767 356.015425 300.922877 353.065227 297.972679 
C 350.115028 295.022481 346.113139 293.364844 341.940929 293.364844 
C 337.768718 293.364844 333.766829 295.022481 330.816631 297.972679 
C 327.866433 300.922877 326.208796 304.924767 326.208796 309.096977 
C 326.208796 313.269187 327.866433 317.271076 330.816631 320.221275 
C 333.766829 323.171473 337.768718 324.82911 341.940929 324.82911 
z
" clip-path="url(#pa2dfef6601)" style="fill: #d7e6f7; stroke: #ffffff; stroke-width: 1.3"/>
    <path d="M 321.646715 364.446946 
C 325.510407 364.446946 329.216372 362.911885 331.948414 360.179842 
C 334.680457 357.4478 336.215517 353.741835 336.215517 349.878144 
C 336.215517 346.014452 334.680457 342.308487 331.948414 339.576445 
C 329.216372 336.844402 325.510407 335.309341 321.646715 335.309341 
C 317.783024 335.309341 314.077059 336.844402 311.345016 339.576445 
C 308.612974 342.308487 307.077913 346.014452 307.077913 349.878144 
C 307.077913 353.741835 308.612974 357.4478 311.345016 360.179842 
C 314.077059 362.911885 317.783024 364.446946 321.646715 364.446946 
z
" clip-path="url(#pa2dfef6601)" style="fill: #d7e6f7; stroke: #ffffff; stroke-width: 1.3"/>
    <path d="M 362.526088 368.835405 
C 366.698298 368.835405 370.700187 367.177768 373.650386 364.22757 
C 376.600584 361.277372 378.258221 357.275483 378.258221 353.103272 
C 378.258221 348.931062 376.600584 344.929173 373.650386 341.978975 
C 370.700187 339.028776 366.698298 337.37114 362.526088 337.37114 
C 358.353877 337.37114 354.351988 339.028776 351.40179 341.978975 
C 348.451592 344.929173 346.793955 348.931062 346.793955 353.103272 
C 346.793955 357.275483 348.451592 361.277372 351.40179 364.22757 
C 354.351988 367.177768 358.353877 368.835405 362.526088 368.835405 
z
" clip-path="url(#pa2dfef6601)" style="fill: #d7e6f7; stroke: #ffffff; stroke-width: 1.3"/>
    <path d="M 592.400145 408.333986 
C 595.987746 408.333986 599.428891 406.908617 601.965708 404.3718 
C 604.502525 401.834982 605.927894 398.393837 605.927894 394.806236 
C 605.927894 391.218635 604.502525 387.77749 601.965708 385.240673 
C 599.428891 382.703856 595.987746 381.278487 592.400145 381.278487 
C 588.812544 381.278487 585.371399 382.703856 582.834582 385.240673 
C 580.297765 387.77749 578.872396 391.218635 578.872396 394.806236 
C 578.872396 398.393837 580.297765 401.834982 582.834582 404.3718 
C 585.371399 406.908617 588.812544 408.333986 592.400145 408.333986 
z
" clip-path="url(#pa2dfef6601)" style="fill: #d7e6f7; stroke: #ffffff; stroke-width: 1.3"/>
    <path d="M 512.100709 458.647615 
C 516.272919 458.647615 520.274808 456.989978 523.225007 454.03978 
C 526.175205 451.089581 527.832842 447.087692 527.832842 442.915482 
C 527.832842 438.743271 526.175205 434.741382 523.225007 431.791184 
C 520.274808 428.840986 516.272919 427.183349 512.100709 427.183349 
C 507.928498 427.183349 503.926609 428.840986 500.976411 431.791184 
C 498.026213 434.741382 496.368576 438.743271 496.368576 442.915482 
C 496.368576 447.087692 498.026213 451.089581 500.976411 454.03978 
C 503.926609 456.989978 507.928498 458.647615 512.100709 458.647615 
z
" clip-path="url(#pa2dfef6601)" style="fill: #d7e6f7; stroke: #ffffff; stroke-width: 1.3"/>
    <path d="M 597.015012 479.557283 
C 600.646455 479.557283 604.129652 478.114495 606.69747 475.546677 
C 609.265288 472.978859 610.708076 469.495662 610.708076 465.864219 
C 610.708076 462.232776 609.265288 458.749578 606.69747 456.18176 
C 604.129652 453.613942 600.646455 452.171155 597.015012 452.171155 
C 593.383569 452.171155 589.900371 453.613942 587.332553 456.18176 
C 584.764735 458.749578 583.321948 462.232776 583.321948 465.864219 
C 583.321948 469.495662 584.764735 472.978859 587.332553 475.546677 
C 589.900371 478.114495 593.383569 479.557283 597.015012 479.557283 
z
" clip-path="url(#pa2dfef6601)" style="fill: #d7e6f7; stroke: #ffffff; stroke-width: 1.3"/>
   </g>
   <g id="text_1">
    <text style="font-weight: 700; font-size: 13.5px; font-family: 'DejaVu Sans'; fill: #1d3557" transform="translate(7.2 17.457891)">Figure 11.  al-Kawthar as a sub-graph of the Qurʾanic root co-occurrence web</text>
    <text style="font-weight: 700; font-size: 13.5px; font-family: 'DejaVu Sans'; fill: #1d3557" transform="translate(7.2 32.680406)">navy = the surah's 7 roots · red = the two hapax (near-isolates) · pale = strongest corpus neighbours · node size ∝ degree</text>
   </g>
   <g id="text_2">
    <text style="font-weight: 700; font-size: 13px; font-family: 'DejaVu Sans'; text-anchor: middle; fill: #1d3557" x="247.826218" y="220.973822" transform="rotate(-0 247.826218 220.973822)">ʿ-ṭ-w</text>
   </g>
   <g id="text_3">
    <text style="font-weight: 700; font-size: 13px; font-family: 'DejaVu Sans'; text-anchor: middle; fill: #1d3557" x="361.586914" y="303.845866" transform="rotate(-0 361.586914 303.845866)">k-th-r</text>
   </g>
   <g id="text_4">
    <text style="font-weight: 700; font-size: 13px; font-family: 'DejaVu Sans'; text-anchor: middle; fill: #1d3557" x="348.001826" y="349.238578" transform="rotate(-0 348.001826 349.238578)">ṣ-l-w</text>
   </g>
   <g id="text_5">
    <text style="font-weight: 700; font-size: 13px; font-family: 'DejaVu Sans'; text-anchor: middle; fill: #1d3557" x="341.892514" y="316.322208" transform="rotate(-0 341.892514 316.322208)">r-b-b</text>
   </g>
   <g id="text_6">
    <text style="font-weight: 700; font-size: 12.5px; font-family: 'DejaVu Sans'; text-anchor: middle; fill: #e63946" x="215.947853" y="393.866592" transform="rotate(-0 215.947853 393.866592)">n-ḥ-r  (hapax)</text>
   </g>
   <g id="text_7">
    <text style="font-weight: 700; font-size: 13px; font-family: 'DejaVu Sans'; text-anchor: middle; fill: #1d3557" x="476.863693" y="388.725854" transform="rotate(-0 476.863693 388.725854)">sh-n-ʾ</text>
   </g>
   <g id="text_8">
    <text style="font-weight: 700; font-size: 12.5px; font-family: 'DejaVu Sans'; text-anchor: middle; fill: #e63946" x="674.804692" y="401.090505" transform="rotate(-0 674.804692 401.090505)">b-t-r  (hapax)</text>
   </g>
   <g id="text_9">
    <text style="font-size: 10.5px; font-family: 'DejaVu Sans'; text-anchor: middle; fill: #10243a" x="295.775423" y="97.652133" transform="rotate(-0 295.775423 97.652133)">j-z-y</text>
   </g>
   <g id="text_10">
    <text style="font-size: 10.5px; font-family: 'DejaVu Sans'; text-anchor: middle; fill: #10243a" x="169.199653" y="103.802958" transform="rotate(-0 169.199653 103.802958)">r-ḍ-w</text>
   </g>
   <g id="text_11">
    <text style="font-size: 10.5px; font-family: 'DejaVu Sans'; text-anchor: middle; fill: #10243a" x="125.344897" y="132.808773" transform="rotate(-0 125.344897 132.808773)">sh-y-ʾ</text>
   </g>
   <g id="text_12">
    <text style="font-size: 10.5px; font-family: 'DejaVu Sans'; text-anchor: middle; fill: #10243a" x="228.833301" y="90.072797" transform="rotate(-0 228.833301 90.072797)">gh-y-r</text>
   </g>
   <g id="text_13">
    <text style="font-size: 10.5px; font-family: 'DejaVu Sans'; text-anchor: middle; fill: #10243a" x="109.995308" y="174.465718" transform="rotate(-0 109.995308 174.465718)">k-l-l</text>
   </g>
   <g id="text_14">
    <text style="font-size: 10.5px; font-family: 'DejaVu Sans'; text-anchor: middle; fill: #10243a" x="355.165376" y="283.707597" transform="rotate(-0 355.165376 283.707597)">Allah</text>
   </g>
   <g id="text_15">
    <text style="font-size: 10.5px; font-family: 'DejaVu Sans'; text-anchor: middle; fill: #10243a" x="359.904185" y="274.265165" transform="rotate(-0 359.904185 274.265165)">k-w-n</text>
   </g>
   <g id="text_16">
    <text style="font-size: 10.5px; font-family: 'DejaVu Sans'; text-anchor: middle; fill: #10243a" x="336.596716" y="257.373564" transform="rotate(-0 336.596716 257.373564)">ʿ-l-m</text>
   </g>
   <g id="text_17">
    <text style="font-size: 10.5px; font-family: 'DejaVu Sans'; text-anchor: middle; fill: #10243a" x="371.938917" y="283.949785" transform="rotate(-0 371.938917 283.949785)">ʾ-m-n</text>
   </g>
   <g id="text_18">
    <text style="font-size: 10.5px; font-family: 'DejaVu Sans'; text-anchor: middle; fill: #10243a" x="387.823329" y="238.67632" transform="rotate(-0 387.823329 238.67632)">ʾ-n-s</text>
   </g>
   <g id="text_19">
    <text style="font-size: 10.5px; font-family: 'DejaVu Sans'; text-anchor: middle; fill: #10243a" x="328.411249" y="269.04505" transform="rotate(-0 328.411249 269.04505)">q-w-l</text>
   </g>
   <g id="text_20">
    <text style="font-size: 10.5px; font-family: 'DejaVu Sans'; text-anchor: middle; fill: #10243a" x="341.940929" y="294.71318" transform="rotate(-0 341.940929 294.71318)">q-w-m</text>
   </g>
   <g id="text_21">
    <text style="font-size: 10.5px; font-family: 'DejaVu Sans'; text-anchor: middle; fill: #10243a" x="321.646715" y="335.494346" transform="rotate(-0 321.646715 335.494346)">z-k-w</text>
   </g>
   <g id="text_22">
    <text style="font-size: 10.5px; font-family: 'DejaVu Sans'; text-anchor: middle; fill: #10243a" x="362.526088" y="338.719475" transform="rotate(-0 362.526088 338.719475)">ʾ-t-y</text>
   </g>
   <g id="text_23">
    <text style="font-size: 10.5px; font-family: 'DejaVu Sans'; text-anchor: middle; fill: #10243a" x="592.400145" y="380.422439" transform="rotate(-0 592.400145 380.422439)">j-r-m</text>
   </g>
   <g id="text_24">
    <text style="font-size: 10.5px; font-family: 'DejaVu Sans'; text-anchor: middle; fill: #10243a" x="512.100709" y="428.531684" transform="rotate(-0 512.100709 428.531684)">w-q-y</text>
   </g>
   <g id="text_25">
    <text style="font-size: 10.5px; font-family: 'DejaVu Sans'; text-anchor: middle; fill: #10243a" x="597.015012" y="451.480421" transform="rotate(-0 597.015012 451.480421)">ʾ-th-m</text>
   </g>
  </g>
 </g>
 <defs>
  <clipPath id="pa2dfef6601">
   <rect x="7.2" y="38.680406" width="770.4" height="492.96"/>
  </clipPath>
 </defs>
</svg>
