<?xml version="1.0" encoding="utf-8" standalone="no"?>
<!DOCTYPE svg PUBLIC "-//W3C//DTD SVG 1.1//EN"
  "http://www.w3.org/Graphics/SVG/1.1/DTD/svg11.dtd">
<svg xmlns:xlink="http://www.w3.org/1999/xlink" width="714.216406pt" height="524.953094pt" viewBox="0 0 714.216406 524.953094" xmlns="http://www.w3.org/2000/svg" version="1.1">
 <metadata>
  <rdf:RDF xmlns:dc="http://purl.org/dc/elements/1.1/" xmlns:cc="http://creativecommons.org/ns#" xmlns:rdf="http://www.w3.org/1999/02/22-rdf-syntax-ns#">
   <cc:Work>
    <dc:type rdf:resource="http://purl.org/dc/dcmitype/StillImage"/>
    <dc:date>2026-06-26T19:13:00.283611</dc:date>
    <dc:format>image/svg+xml</dc:format>
    <dc:creator>
     <cc:Agent>
      <dc:title>Matplotlib v3.10.9, https://matplotlib.org/</dc:title>
     </cc:Agent>
    </dc:creator>
   </cc:Work>
  </rdf:RDF>
 </metadata>
 <defs>
  <style type="text/css">*{stroke-linejoin: round; stroke-linecap: butt}</style>
 </defs>
 <g id="figure_1">
  <g id="patch_1">
   <path d="M 0 524.953094 
L 714.216406 524.953094 
L 714.216406 0 
L 0 0 
z
" style="fill: #ffffff"/>
  </g>
  <g id="axes_1">
   <g id="LineCollection_1">
    <path d="M 420.385279 358.616516 
L 268.448987 274.189367 
" clip-path="url(#pe556f58e82)" style="fill: none; stroke: #c9d6e8; stroke-opacity: 0.8; stroke-width: 2.419158"/>
    <path d="M 420.385279 358.616516 
L 559.827929 436.69736 
" clip-path="url(#pe556f58e82)" style="fill: none; stroke: #c9d6e8; stroke-opacity: 0.8; stroke-width: 2.513433"/>
    <path d="M 559.827929 436.69736 
L 625.509514 429.976618 
" clip-path="url(#pe556f58e82)" style="fill: none; stroke: #c9d6e8; stroke-opacity: 0.8; stroke-width: 4.313433"/>
    <path d="M 559.827929 436.69736 
L 595.656236 470.549159 
" clip-path="url(#pe556f58e82)" style="fill: none; stroke: #c9d6e8; stroke-opacity: 0.8; stroke-width: 4.313433"/>
    <path d="M 559.827929 436.69736 
L 597.539491 405.866547 
" clip-path="url(#pe556f58e82)" style="fill: none; stroke: #c9d6e8; stroke-opacity: 0.8; stroke-width: 3.9399"/>
    <path d="M 559.827929 436.69736 
L 632.821639 458.379595 
" clip-path="url(#pe556f58e82)" style="fill: none; stroke: #c9d6e8; stroke-opacity: 0.8; stroke-width: 3.9399"/>
    <path d="M 559.827929 436.69736 
L 520.402486 468.84336 
" clip-path="url(#pe556f58e82)" style="fill: none; stroke: #c9d6e8; stroke-opacity: 0.8; stroke-width: 3.716765"/>
    <path d="M 559.827929 436.69736 
L 564.212081 488.562183 
" clip-path="url(#pe556f58e82)" style="fill: none; stroke: #c9d6e8; stroke-opacity: 0.8; stroke-width: 3.673989"/>
    <path d="M 559.827929 436.69736 
L 131.379164 137.276371 
" clip-path="url(#pe556f58e82)" style="fill: none; stroke: #c9d6e8; stroke-opacity: 0.8"/>
    <path d="M 559.827929 436.69736 
L 268.448987 274.189367 
" clip-path="url(#pe556f58e82)" style="fill: none; stroke: #c9d6e8; stroke-opacity: 0.8"/>
    <path d="M 131.379164 137.276371 
L 114.39906 108.26716 
" clip-path="url(#pe556f58e82)" style="fill: none; stroke: #0f6e56; stroke-opacity: 0.8; stroke-width: 5.603097"/>
    <path d="M 131.379164 137.276371 
L 81.301852 153.234527 
" clip-path="url(#pe556f58e82)" style="fill: none; stroke: #0f6e56; stroke-opacity: 0.8; stroke-width: 5.189608"/>
    <path d="M 131.379164 137.276371 
L 65.578361 127.589535 
" clip-path="url(#pe556f58e82)" style="fill: none; stroke: #0f6e56; stroke-opacity: 0.8; stroke-width: 4.939828"/>
    <path d="M 131.379164 137.276371 
L 177.098084 107.205167 
" clip-path="url(#pe556f58e82)" style="fill: none; stroke: #c9d6e8; stroke-opacity: 0.8; stroke-width: 4.329563"/>
    <path d="M 131.379164 137.276371 
L 137.370134 86.126134 
" clip-path="url(#pe556f58e82)" style="fill: none; stroke: #c9d6e8; stroke-opacity: 0.8; stroke-width: 4.231891"/>
    <path d="M 131.379164 137.276371 
L 74.079701 97.21824 
" clip-path="url(#pe556f58e82)" style="fill: none; stroke: #c9d6e8; stroke-opacity: 0.8; stroke-width: 4.072701"/>
    <path d="M 131.379164 137.276371 
L 186.271688 191.869929 
" clip-path="url(#pe556f58e82)" style="fill: none; stroke: #0f6e56; stroke-opacity: 0.8; stroke-width: 6.503097"/>
    <path d="M 131.379164 137.276371 
L 268.448987 274.189367 
" clip-path="url(#pe556f58e82)" style="fill: none; stroke: #c9d6e8; stroke-opacity: 0.8; stroke-width: 1.13984"/>
    <path d="M 268.448987 274.189367 
L 333.882411 279.308977 
" clip-path="url(#pe556f58e82)" style="fill: none; stroke: #c9d6e8; stroke-opacity: 0.8; stroke-width: 3.555889"/>
    <path d="M 268.448987 274.189367 
L 275.683571 235.442957 
" clip-path="url(#pe556f58e82)" style="fill: none; stroke: #c9d6e8; stroke-opacity: 0.8; stroke-width: 3.517127"/>
    <path d="M 268.448987 274.189367 
L 332.938643 243.208737 
" clip-path="url(#pe556f58e82)" style="fill: none; stroke: #c9d6e8; stroke-opacity: 0.8; stroke-width: 3.182355"/>
    <path d="M 268.448987 274.189367 
L 200.945686 273.598129 
" clip-path="url(#pe556f58e82)" style="fill: none; stroke: #c9d6e8; stroke-opacity: 0.8; stroke-width: 3.182355"/>
    <path d="M 268.448987 274.189367 
L 236.11385 313.361195 
" clip-path="url(#pe556f58e82)" style="fill: none; stroke: #c9d6e8; stroke-opacity: 0.8; stroke-width: 3.182355"/>
    <path d="M 268.448987 274.189367 
L 297.976081 315.039641 
" clip-path="url(#pe556f58e82)" style="fill: none; stroke: #c9d6e8; stroke-opacity: 0.8; stroke-width: 3.182355"/>
    <path d="M 268.448987 274.189367 
L 186.271688 191.869929 
" clip-path="url(#pe556f58e82)" style="fill: none; stroke: #c9d6e8; stroke-opacity: 0.8; stroke-width: 3.555889"/>
    <path d="M 268.448987 274.189367 
L 156.572562 340.03435 
" clip-path="url(#pe556f58e82)" style="fill: none; stroke: #c9d6e8; stroke-opacity: 0.8; stroke-width: 2.129422"/>
    <path d="M 156.572562 340.03435 
L 126.040855 357.998622 
" clip-path="url(#pe556f58e82)" style="fill: none; stroke: #0f6e56; stroke-opacity: 0.8; stroke-width: 10.919298"/>
   </g>
   <g id="PathCollection_1">
    <path d="M 420.385279 375.19964 
C 424.783174 375.19964 429.001536 373.452338 432.111318 370.342556 
C 435.2211 367.232774 436.968402 363.014412 436.968402 358.616516 
C 436.968402 354.218621 435.2211 350.000259 432.111318 346.890477 
C 429.001536 343.780695 424.783174 342.033392 420.385279 342.033392 
C 415.987383 342.033392 411.769021 343.780695 408.659239 346.890477 
C 405.549457 350.000259 403.802155 354.218621 403.802155 358.616516 
C 403.802155 363.014412 405.549457 367.232774 408.659239 370.342556 
C 411.769021 373.452338 415.987383 375.19964 420.385279 375.19964 
z
" clip-path="url(#pe556f58e82)" style="fill: #1d3557; stroke: #ffffff; stroke-width: 1.3"/>
    <path d="M 559.827929 453.280483 
C 564.225825 453.280483 568.444186 451.533181 571.553968 448.423399 
C 574.66375 445.313617 576.411053 441.095255 576.411053 436.69736 
C 576.411053 432.299464 574.66375 428.081102 571.553968 424.97132 
C 568.444186 421.861538 564.225825 420.114236 559.827929 420.114236 
C 555.430033 420.114236 551.211671 421.861538 548.101889 424.97132 
C 544.992107 428.081102 543.244805 432.299464 543.244805 436.69736 
C 543.244805 441.095255 544.992107 445.313617 548.101889 448.423399 
C 551.211671 451.533181 555.430033 453.280483 559.827929 453.280483 
z
" clip-path="url(#pe556f58e82)" style="fill: #1d3557; stroke: #ffffff; stroke-width: 1.3"/>
    <path d="M 131.379164 153.859495 
C 135.77706 153.859495 139.995421 152.112193 143.105203 149.002411 
C 146.214985 145.892629 147.962288 141.674267 147.962288 137.276371 
C 147.962288 132.878476 146.214985 128.660114 143.105203 125.550332 
C 139.995421 122.44055 135.77706 120.693247 131.379164 120.693247 
C 126.981268 120.693247 122.762906 122.44055 119.653124 125.550332 
C 116.543342 128.660114 114.79604 132.878476 114.79604 137.276371 
C 114.79604 141.674267 116.543342 145.892629 119.653124 149.002411 
C 122.762906 152.112193 126.981268 153.859495 131.379164 153.859495 
z
" clip-path="url(#pe556f58e82)" style="fill: #1d3557; stroke: #ffffff; stroke-width: 1.3"/>
    <path d="M 268.448987 290.772491 
C 272.846883 290.772491 277.065245 289.025189 280.175027 285.915407 
C 283.284809 282.805625 285.032111 278.587263 285.032111 274.189367 
C 285.032111 269.791471 283.284809 265.57311 280.175027 262.463328 
C 277.065245 259.353546 272.846883 257.606243 268.448987 257.606243 
C 264.051091 257.606243 259.83273 259.353546 256.722948 262.463328 
C 253.613166 265.57311 251.865863 269.791471 251.865863 274.189367 
C 251.865863 278.587263 253.613166 282.805625 256.722948 285.915407 
C 259.83273 289.025189 264.051091 290.772491 268.448987 290.772491 
z
" clip-path="url(#pe556f58e82)" style="fill: #1d3557; stroke: #ffffff; stroke-width: 1.3"/>
    <path d="M 186.271688 206.18775 
C 190.068818 206.18775 193.710939 204.679135 196.395916 201.994158 
C 199.080893 199.309181 200.589509 195.66706 200.589509 191.869929 
C 200.589509 188.072799 199.080893 184.430678 196.395916 181.745701 
C 193.710939 179.060724 190.068818 177.552108 186.271688 177.552108 
C 182.474557 177.552108 178.832436 179.060724 176.147459 181.745701 
C 173.462483 184.430678 171.953867 188.072799 171.953867 191.869929 
C 171.953867 195.66706 173.462483 199.309181 176.147459 201.994158 
C 178.832436 204.679135 182.474557 206.18775 186.271688 206.18775 
z
" clip-path="url(#pe556f58e82)" style="fill: #e63946; stroke: #ffffff; stroke-width: 1.3"/>
    <path d="M 156.572562 356.617474 
C 160.970458 356.617474 165.18882 354.870172 168.298602 351.76039 
C 171.408384 348.650608 173.155686 344.432246 173.155686 340.03435 
C 173.155686 335.636454 171.408384 331.418093 168.298602 328.308311 
C 165.18882 325.198529 160.970458 323.451226 156.572562 323.451226 
C 152.174666 323.451226 147.956305 325.198529 144.846523 328.308311 
C 141.736741 331.418093 139.989438 335.636454 139.989438 340.03435 
C 139.989438 344.432246 141.736741 348.650608 144.846523 351.76039 
C 147.956305 354.870172 152.174666 356.617474 156.572562 356.617474 
z
" clip-path="url(#pe556f58e82)" style="fill: #1d3557; stroke: #ffffff; stroke-width: 1.3"/>
    <path d="M 126.040855 372.316443 
C 129.837986 372.316443 133.480107 370.807827 136.165084 368.12285 
C 138.85006 365.437873 140.358676 361.795752 140.358676 357.998622 
C 140.358676 354.201491 138.85006 350.55937 136.165084 347.874393 
C 133.480107 345.189416 129.837986 343.6808 126.040855 343.6808 
C 122.243725 343.6808 118.601604 345.189416 115.916627 347.874393 
C 113.23165 350.55937 111.723034 354.201491 111.723034 357.998622 
C 111.723034 361.795752 113.23165 365.437873 115.916627 368.12285 
C 118.601604 370.807827 122.243725 372.316443 126.040855 372.316443 
z
" clip-path="url(#pe556f58e82)" style="fill: #e63946; stroke: #ffffff; stroke-width: 1.3"/>
    <path d="M 625.509514 440.700423 
C 628.353501 440.700423 631.081388 439.570496 633.09239 437.559493 
C 635.103392 435.548491 636.23332 432.820604 636.23332 429.976618 
C 636.23332 427.132632 635.103392 424.404745 633.09239 422.393743 
C 631.081388 420.38274 628.353501 419.252813 625.509514 419.252813 
C 622.665528 419.252813 619.937641 420.38274 617.926639 422.393743 
C 615.915637 424.404745 614.785709 427.132632 614.785709 429.976618 
C 614.785709 432.820604 615.915637 435.548491 617.926639 437.559493 
C 619.937641 439.570496 622.665528 440.700423 625.509514 440.700423 
z
" clip-path="url(#pe556f58e82)" style="fill: #d7e6f7; stroke: #ffffff; stroke-width: 1.3"/>
    <path d="M 595.656236 481.272964 
C 598.500222 481.272964 601.228109 480.143036 603.239111 478.132034 
C 605.250113 476.121032 606.380041 473.393145 606.380041 470.549159 
C 606.380041 467.705172 605.250113 464.977285 603.239111 462.966283 
C 601.228109 460.955281 598.500222 459.825353 595.656236 459.825353 
C 592.81225 459.825353 590.084363 460.955281 588.07336 462.966283 
C 586.062358 464.977285 584.932431 467.705172 584.932431 470.549159 
C 584.932431 473.393145 586.062358 476.121032 588.07336 478.132034 
C 590.084363 480.143036 592.81225 481.272964 595.656236 481.272964 
z
" clip-path="url(#pe556f58e82)" style="fill: #d7e6f7; stroke: #ffffff; stroke-width: 1.3"/>
    <path d="M 597.539491 416.590352 
C 600.383478 416.590352 603.111365 415.460424 605.122367 413.449422 
C 607.133369 411.43842 608.263296 408.710533 608.263296 405.866547 
C 608.263296 403.02256 607.133369 400.294673 605.122367 398.283671 
C 603.111365 396.272669 600.383478 395.142741 597.539491 395.142741 
C 594.695505 395.142741 591.967618 396.272669 589.956616 398.283671 
C 587.945614 400.294673 586.815686 403.02256 586.815686 405.866547 
C 586.815686 408.710533 587.945614 411.43842 589.956616 413.449422 
C 591.967618 415.460424 594.695505 416.590352 597.539491 416.590352 
z
" clip-path="url(#pe556f58e82)" style="fill: #d7e6f7; stroke: #ffffff; stroke-width: 1.3"/>
    <path d="M 632.821639 469.103401 
C 635.665626 469.103401 638.393513 467.973473 640.404515 465.962471 
C 642.415517 463.951469 643.545445 461.223582 643.545445 458.379595 
C 643.545445 455.535609 642.415517 452.807722 640.404515 450.79672 
C 638.393513 448.785718 635.665626 447.65579 632.821639 447.65579 
C 629.977653 447.65579 627.249766 448.785718 625.238764 450.79672 
C 623.227762 452.807722 622.097834 455.535609 622.097834 458.379595 
C 622.097834 461.223582 623.227762 463.951469 625.238764 465.962471 
C 627.249766 467.973473 629.977653 469.103401 632.821639 469.103401 
z
" clip-path="url(#pe556f58e82)" style="fill: #d7e6f7; stroke: #ffffff; stroke-width: 1.3"/>
    <path d="M 520.402486 479.567165 
C 523.246473 479.567165 525.97436 478.437237 527.985362 476.426235 
C 529.996364 474.415233 531.126292 471.687346 531.126292 468.84336 
C 531.126292 465.999373 529.996364 463.271486 527.985362 461.260484 
C 525.97436 459.249482 523.246473 458.119554 520.402486 458.119554 
C 517.5585 458.119554 514.830613 459.249482 512.819611 461.260484 
C 510.808609 463.271486 509.678681 465.999373 509.678681 468.84336 
C 509.678681 471.687346 510.808609 474.415233 512.819611 476.426235 
C 514.830613 478.437237 517.5585 479.567165 520.402486 479.567165 
z
" clip-path="url(#pe556f58e82)" style="fill: #d7e6f7; stroke: #ffffff; stroke-width: 1.3"/>
    <path d="M 564.212081 499.285989 
C 567.056068 499.285989 569.783955 498.156061 571.794957 496.145059 
C 573.805959 494.134057 574.935887 491.40617 574.935887 488.562183 
C 574.935887 485.718197 573.805959 482.99031 571.794957 480.979308 
C 569.783955 478.968306 567.056068 477.838378 564.212081 477.838378 
C 561.368095 477.838378 558.640208 478.968306 556.629206 480.979308 
C 554.618204 482.99031 553.488276 485.718197 553.488276 488.562183 
C 553.488276 491.40617 554.618204 494.134057 556.629206 496.145059 
C 558.640208 498.156061 561.368095 499.285989 564.212081 499.285989 
z
" clip-path="url(#pe556f58e82)" style="fill: #d7e6f7; stroke: #ffffff; stroke-width: 1.3"/>
    <path d="M 114.39906 118.990966 
C 117.243046 118.990966 119.970933 117.861038 121.981935 115.850036 
C 123.992937 113.839034 125.122865 111.111147 125.122865 108.26716 
C 125.122865 105.423174 123.992937 102.695287 121.981935 100.684285 
C 119.970933 98.673283 117.243046 97.543355 114.39906 97.543355 
C 111.555073 97.543355 108.827186 98.673283 106.816184 100.684285 
C 104.805182 102.695287 103.675254 105.423174 103.675254 108.26716 
C 103.675254 111.111147 104.805182 113.839034 106.816184 115.850036 
C 108.827186 117.861038 111.555073 118.990966 114.39906 118.990966 
z
" clip-path="url(#pe556f58e82)" style="fill: #d7e6f7; stroke: #ffffff; stroke-width: 1.3"/>
    <path d="M 81.301852 163.958332 
C 84.145838 163.958332 86.873725 162.828405 88.884728 160.817402 
C 90.89573 158.8064 92.025657 156.078513 92.025657 153.234527 
C 92.025657 150.390541 90.89573 147.662654 88.884728 145.651652 
C 86.873725 143.64065 84.145838 142.510722 81.301852 142.510722 
C 78.457866 142.510722 75.729979 143.64065 73.718977 145.651652 
C 71.707975 147.662654 70.578047 150.390541 70.578047 153.234527 
C 70.578047 156.078513 71.707975 158.8064 73.718977 160.817402 
C 75.729979 162.828405 78.457866 163.958332 81.301852 163.958332 
z
" clip-path="url(#pe556f58e82)" style="fill: #d7e6f7; stroke: #ffffff; stroke-width: 1.3"/>
    <path d="M 65.578361 138.31334 
C 68.422347 138.31334 71.150234 137.183412 73.161236 135.17241 
C 75.172238 133.161408 76.302166 130.433521 76.302166 127.589535 
C 76.302166 124.745548 75.172238 122.017661 73.161236 120.006659 
C 71.150234 117.995657 68.422347 116.865729 65.578361 116.865729 
C 62.734374 116.865729 60.006487 117.995657 57.995485 120.006659 
C 55.984483 122.017661 54.854555 124.745548 54.854555 127.589535 
C 54.854555 130.433521 55.984483 133.161408 57.995485 135.17241 
C 60.006487 137.183412 62.734374 138.31334 65.578361 138.31334 
z
" clip-path="url(#pe556f58e82)" style="fill: #d7e6f7; stroke: #ffffff; stroke-width: 1.3"/>
    <path d="M 177.098084 117.928972 
C 179.94207 117.928972 182.669957 116.799044 184.680959 114.788042 
C 186.691961 112.77704 187.821889 110.049153 187.821889 107.205167 
C 187.821889 104.36118 186.691961 101.633293 184.680959 99.622291 
C 182.669957 97.611289 179.94207 96.481361 177.098084 96.481361 
C 174.254097 96.481361 171.52621 97.611289 169.515208 99.622291 
C 167.504206 101.633293 166.374279 104.36118 166.374279 107.205167 
C 166.374279 110.049153 167.504206 112.77704 169.515208 114.788042 
C 171.52621 116.799044 174.254097 117.928972 177.098084 117.928972 
z
" clip-path="url(#pe556f58e82)" style="fill: #d7e6f7; stroke: #ffffff; stroke-width: 1.3"/>
    <path d="M 137.370134 96.84994 
C 140.21412 96.84994 142.942007 95.720012 144.953009 93.70901 
C 146.964011 91.698008 148.093939 88.970121 148.093939 86.126134 
C 148.093939 83.282148 146.964011 80.554261 144.953009 78.543259 
C 142.942007 76.532257 140.21412 75.402329 137.370134 75.402329 
C 134.526147 75.402329 131.79826 76.532257 129.787258 78.543259 
C 127.776256 80.554261 126.646328 83.282148 126.646328 86.126134 
C 126.646328 88.970121 127.776256 91.698008 129.787258 93.70901 
C 131.79826 95.720012 134.526147 96.84994 137.370134 96.84994 
z
" clip-path="url(#pe556f58e82)" style="fill: #d7e6f7; stroke: #ffffff; stroke-width: 1.3"/>
    <path d="M 74.079701 107.942045 
C 76.923688 107.942045 79.651575 106.812118 81.662577 104.801115 
C 83.673579 102.790113 84.803507 100.062226 84.803507 97.21824 
C 84.803507 94.374254 83.673579 91.646367 81.662577 89.635365 
C 79.651575 87.624363 76.923688 86.494435 74.079701 86.494435 
C 71.235715 86.494435 68.507828 87.624363 66.496826 89.635365 
C 64.485824 91.646367 63.355896 94.374254 63.355896 97.21824 
C 63.355896 100.062226 64.485824 102.790113 66.496826 104.801115 
C 68.507828 106.812118 71.235715 107.942045 74.079701 107.942045 
z
" clip-path="url(#pe556f58e82)" style="fill: #d7e6f7; stroke: #ffffff; stroke-width: 1.3"/>
    <path d="M 333.882411 290.032783 
C 336.726398 290.032783 339.454285 288.902855 341.465287 286.891853 
C 343.476289 284.880851 344.606217 282.152964 344.606217 279.308977 
C 344.606217 276.464991 343.476289 273.737104 341.465287 271.726102 
C 339.454285 269.7151 336.726398 268.585172 333.882411 268.585172 
C 331.038425 268.585172 328.310538 269.7151 326.299536 271.726102 
C 324.288534 273.737104 323.158606 276.464991 323.158606 279.308977 
C 323.158606 282.152964 324.288534 284.880851 326.299536 286.891853 
C 328.310538 288.902855 331.038425 290.032783 333.882411 290.032783 
z
" clip-path="url(#pe556f58e82)" style="fill: #d7e6f7; stroke: #ffffff; stroke-width: 1.3"/>
    <path d="M 275.683571 246.166762 
C 278.527557 246.166762 281.255444 245.036834 283.266446 243.025832 
C 285.277448 241.01483 286.407376 238.286943 286.407376 235.442957 
C 286.407376 232.59897 285.277448 229.871083 283.266446 227.860081 
C 281.255444 225.849079 278.527557 224.719152 275.683571 224.719152 
C 272.839584 224.719152 270.111697 225.849079 268.100695 227.860081 
C 266.089693 229.871083 264.959765 232.59897 264.959765 235.442957 
C 264.959765 238.286943 266.089693 241.01483 268.100695 243.025832 
C 270.111697 245.036834 272.839584 246.166762 275.683571 246.166762 
z
" clip-path="url(#pe556f58e82)" style="fill: #d7e6f7; stroke: #ffffff; stroke-width: 1.3"/>
    <path d="M 332.938643 253.932542 
C 335.78263 253.932542 338.510516 252.802615 340.521519 250.791613 
C 342.532521 248.78061 343.662448 246.052723 343.662448 243.208737 
C 343.662448 240.364751 342.532521 237.636864 340.521519 235.625862 
C 338.510516 233.61486 335.78263 232.484932 332.938643 232.484932 
C 330.094657 232.484932 327.36677 233.61486 325.355768 235.625862 
C 323.344766 237.636864 322.214838 240.364751 322.214838 243.208737 
C 322.214838 246.052723 323.344766 248.78061 325.355768 250.791613 
C 327.36677 252.802615 330.094657 253.932542 332.938643 253.932542 
z
" clip-path="url(#pe556f58e82)" style="fill: #d7e6f7; stroke: #ffffff; stroke-width: 1.3"/>
    <path d="M 200.945686 284.321934 
C 203.789673 284.321934 206.517559 283.192006 208.528562 281.181004 
C 210.539564 279.170002 211.669491 276.442115 211.669491 273.598129 
C 211.669491 270.754142 210.539564 268.026255 208.528562 266.015253 
C 206.517559 264.004251 203.789673 262.874323 200.945686 262.874323 
C 198.1017 262.874323 195.373813 264.004251 193.362811 266.015253 
C 191.351809 268.026255 190.221881 270.754142 190.221881 273.598129 
C 190.221881 276.442115 191.351809 279.170002 193.362811 281.181004 
C 195.373813 283.192006 198.1017 284.321934 200.945686 284.321934 
z
" clip-path="url(#pe556f58e82)" style="fill: #d7e6f7; stroke: #ffffff; stroke-width: 1.3"/>
    <path d="M 236.11385 324.085001 
C 238.957837 324.085001 241.685724 322.955073 243.696726 320.944071 
C 245.707728 318.933069 246.837655 316.205182 246.837655 313.361195 
C 246.837655 310.517209 245.707728 307.789322 243.696726 305.77832 
C 241.685724 303.767318 238.957837 302.63739 236.11385 302.63739 
C 233.269864 302.63739 230.541977 303.767318 228.530975 305.77832 
C 226.519973 307.789322 225.390045 310.517209 225.390045 313.361195 
C 225.390045 316.205182 226.519973 318.933069 228.530975 320.944071 
C 230.541977 322.955073 233.269864 324.085001 236.11385 324.085001 
z
" clip-path="url(#pe556f58e82)" style="fill: #d7e6f7; stroke: #ffffff; stroke-width: 1.3"/>
    <path d="M 297.976081 325.763446 
C 300.820067 325.763446 303.547954 324.633519 305.558956 322.622517 
C 307.569959 320.611515 308.699886 317.883628 308.699886 315.039641 
C 308.699886 312.195655 307.569959 309.467768 305.558956 307.456766 
C 303.547954 305.445764 300.820067 304.315836 297.976081 304.315836 
C 295.132095 304.315836 292.404208 305.445764 290.393206 307.456766 
C 288.382204 309.467768 287.252276 312.195655 287.252276 315.039641 
C 287.252276 317.883628 288.382204 320.611515 290.393206 322.622517 
C 292.404208 324.633519 295.132095 325.763446 297.976081 325.763446 
z
" clip-path="url(#pe556f58e82)" style="fill: #d7e6f7; stroke: #ffffff; stroke-width: 1.3"/>
   </g>
   <g id="text_1">
    <text style="font-weight: 700; font-size: 13px; font-family: 'DejaVu Sans'; fill: #1d3557" transform="translate(7.2 17.077969)">Figure 7.  Attraction lens (PPMI, frequency-controlled): rare roots sit on FEW edges.</text>
    <text style="font-weight: 700; font-size: 13px; font-family: 'DejaVu Sans'; fill: #1d3557" transform="translate(7.2 31.736687)">Only the ﺮﺘﺑ–ﺀﻦﺷ bond is both strong and statistically notable (p≈0.0005, §5.26); the hapax are</text>
    <text style="font-weight: 700; font-size: 13px; font-family: 'DejaVu Sans'; fill: #1d3557" transform="translate(7.2 46.765094)">neither peripheral by raw degree nor uniformly 'maximally bound' (see Figure 8).</text>
   </g>
   <g id="legend_1">
    <g id="patch_2">
     <path d="M 14.9 512.253094 
L 263.326406 512.253094 
Q 265.526406 512.253094 265.526406 510.053094 
L 265.526406 445.771844 
Q 265.526406 443.571844 263.326406 443.571844 
L 14.9 443.571844 
Q 12.7 443.571844 12.7 445.771844 
L 12.7 510.053094 
Q 12.7 512.253094 14.9 512.253094 
z
" style="fill: #ffffff; opacity: 0.9; stroke: #e2e8f1; stroke-linejoin: miter"/>
    </g>
    <g id="line2d_1">
     <path d="M 17.1 452.480125 
L 28.1 452.480125 
L 39.1 452.480125 
" style="fill: none; stroke: #ffffff; stroke-width: 1.5; stroke-linecap: square"/>
     <defs>
      <path id="m67b77ea812" d="M 0 6 
C 1.591219 6 3.117479 5.367802 4.242641 4.242641 
C 5.367802 3.117479 6 1.591219 6 0 
C 6 -1.591219 5.367802 -3.117479 4.242641 -4.242641 
C 3.117479 -5.367802 1.591219 -6 0 -6 
C -1.591219 -6 -3.117479 -5.367802 -4.242641 -4.242641 
C -5.367802 -3.117479 -6 -1.591219 -6 0 
C -6 1.591219 -5.367802 3.117479 -4.242641 4.242641 
C -3.117479 5.367802 -1.591219 6 0 6 
z
" style="stroke: #ffffff"/>
     </defs>
     <g>
      <use xlink:href="#m67b77ea812" x="28.1" y="452.480125" style="fill: #e63946; stroke: #ffffff"/>
     </g>
    </g>
    <g id="text_2">
     <text style="font-size: 11px; font-family: 'DejaVu Sans'; text-anchor: start; fill: #10243a" x="47.9" y="456.330125" transform="rotate(-0 47.9 456.330125)">hapax root (ﺮﺤﻧ, ﺮﺘﺑ)</text>
    </g>
    <g id="line2d_2">
     <path d="M 17.1 469.024812 
L 28.1 469.024812 
L 39.1 469.024812 
" style="fill: none; stroke: #ffffff; stroke-width: 1.5; stroke-linecap: square"/>
     <defs>
      <path id="mcd49008203" d="M 0 6 
C 1.591219 6 3.117479 5.367802 4.242641 4.242641 
C 5.367802 3.117479 6 1.591219 6 0 
C 6 -1.591219 5.367802 -3.117479 4.242641 -4.242641 
C 3.117479 -5.367802 1.591219 -6 0 -6 
C -1.591219 -6 -3.117479 -5.367802 -4.242641 -4.242641 
C -5.367802 -3.117479 -6 -1.591219 -6 0 
C -6 1.591219 -5.367802 3.117479 -4.242641 4.242641 
C -3.117479 5.367802 -1.591219 6 0 6 
z
" style="stroke: #ffffff"/>
     </defs>
     <g>
      <use xlink:href="#mcd49008203" x="28.1" y="469.024812" style="fill: #1d3557; stroke: #ffffff"/>
     </g>
    </g>
    <g id="text_3">
     <text style="font-size: 11px; font-family: 'DejaVu Sans'; text-anchor: start; fill: #10243a" x="47.9" y="472.874812" transform="rotate(-0 47.9 472.874812)">surah content root</text>
    </g>
    <g id="line2d_3">
     <path d="M 17.1 485.17075 
L 28.1 485.17075 
L 39.1 485.17075 
" style="fill: none; stroke: #ffffff; stroke-width: 1.5; stroke-linecap: square"/>
     <defs>
      <path id="mce8ea6a96a" d="M 0 5 
C 1.326016 5 2.597899 4.473168 3.535534 3.535534 
C 4.473168 2.597899 5 1.326016 5 0 
C 5 -1.326016 4.473168 -2.597899 3.535534 -3.535534 
C 2.597899 -4.473168 1.326016 -5 0 -5 
C -1.326016 -5 -2.597899 -4.473168 -3.535534 -3.535534 
C -4.473168 -2.597899 -5 -1.326016 -5 0 
C -5 1.326016 -4.473168 2.597899 -3.535534 3.535534 
C -2.597899 4.473168 -1.326016 5 0 5 
z
" style="stroke: #ffffff"/>
     </defs>
     <g>
      <use xlink:href="#mce8ea6a96a" x="28.1" y="485.17075" style="fill: #d7e6f7; stroke: #ffffff"/>
     </g>
    </g>
    <g id="text_4">
     <text style="font-size: 11px; font-family: 'DejaVu Sans'; text-anchor: start; fill: #10243a" x="47.9" y="489.02075" transform="rotate(-0 47.9 489.02075)">associate root</text>
    </g>
    <g id="line2d_4">
     <path d="M 17.1 501.316687 
L 28.1 501.316687 
L 39.1 501.316687 
" style="fill: none; stroke: #0f6e56; stroke-width: 3; stroke-linecap: square"/>
    </g>
    <g id="text_5">
     <text style="font-size: 11px; font-family: 'DejaVu Sans'; text-anchor: start; fill: #10243a" x="47.9" y="505.166687" transform="rotate(-0 47.9 505.166687)">strong specific bond (ﺮﺘﺑ–ﺀﻦﺷ, PPMI≥4)</text>
    </g>
   </g>
   <g id="text_6">
    <text style="font-weight: 700; font-size: 16px; font-family: 'DejaVu Sans'; text-anchor: middle; fill: #1d3557" x="420.385279" y="391.624667" transform="rotate(-0 420.385279 391.624667)">ﻮﻄﻋ</text>
   </g>
   <g id="text_7">
    <text style="font-weight: 700; font-size: 16px; font-family: 'DejaVu Sans'; text-anchor: middle; fill: #1d3557" x="559.827929" y="469.70551" transform="rotate(-0 559.827929 469.70551)">ﺮﺜﻛ</text>
   </g>
   <g id="text_8">
    <text style="font-weight: 700; font-size: 16px; font-family: 'DejaVu Sans'; text-anchor: middle; fill: #1d3557" x="131.379164" y="170.284522" transform="rotate(-0 131.379164 170.284522)">ﻮﻠﺻ</text>
   </g>
   <g id="text_9">
    <text style="font-weight: 700; font-size: 16px; font-family: 'DejaVu Sans'; text-anchor: middle; fill: #1d3557" x="268.448987" y="306.617518" transform="rotate(-0 268.448987 306.617518)">ﺐﺑﺭ</text>
   </g>
   <g id="text_10">
    <text style="font-weight: 700; font-size: 16px; font-family: 'DejaVu Sans'; text-anchor: middle; fill: #e63946" x="186.271688" y="224.29808" transform="rotate(-0 186.271688 224.29808)">ﺮﺤﻧ</text>
   </g>
   <g id="text_11">
    <text style="font-weight: 700; font-size: 16px; font-family: 'DejaVu Sans'; text-anchor: middle; fill: #1d3557" x="156.572562" y="372.462501" transform="rotate(-0 156.572562 372.462501)">ﺀﻦﺷ</text>
   </g>
   <g id="text_12">
    <text style="font-weight: 700; font-size: 16px; font-family: 'DejaVu Sans'; text-anchor: middle; fill: #e63946" x="126.040855" y="390.426772" transform="rotate(-0 126.040855 390.426772)">ﺮﺘﺑ</text>
   </g>
   <g id="text_13">
    <text style="font-size: 13px; font-family: 'DejaVu Sans'; text-anchor: middle; fill: #10243a" x="625.509514" y="414.346228" transform="rotate(-0 625.509514 414.346228)">ﻱﺀﻑ</text>
   </g>
   <g id="text_14">
    <text style="font-size: 13px; font-family: 'DejaVu Sans'; text-anchor: middle; fill: #10243a" x="595.656236" y="454.914706" transform="rotate(-0 595.656236 454.914706)">ﻢﻨﻏ</text>
   </g>
   <g id="text_15">
    <text style="font-size: 13px; font-family: 'DejaVu Sans'; text-anchor: middle; fill: #10243a" x="597.539491" y="390.652563" transform="rotate(-0 597.539491 390.652563)">ﻞﺠﻧ</text>
   </g>
   <g id="text_16">
    <text style="font-size: 13px; font-family: 'DejaVu Sans'; text-anchor: middle; fill: #10243a" x="632.821639" y="442.749205" transform="rotate(-0 632.821639 442.749205)">ﻲﺑﺀ</text>
   </g>
   <g id="text_17">
    <text style="font-size: 13px; font-family: 'DejaVu Sans'; text-anchor: middle; fill: #10243a" x="520.402486" y="453.629376" transform="rotate(-0 520.402486 453.629376)">ﻪﻜﻓ</text>
   </g>
   <g id="text_18">
    <text style="font-size: 13px; font-family: 'DejaVu Sans'; text-anchor: middle; fill: #10243a" x="564.212081" y="472.870856" transform="rotate(-0 564.212081 472.870856)">ﻖﺴﻓ</text>
   </g>
   <g id="text_19">
    <text style="font-size: 13px; font-family: 'DejaVu Sans'; text-anchor: middle; fill: #10243a" x="114.39906" y="92.581926" transform="rotate(-0 114.39906 92.581926)">ﻮﻛﺯ</text>
   </g>
   <g id="text_20">
    <text style="font-size: 13px; font-family: 'DejaVu Sans'; text-anchor: middle; fill: #10243a" x="81.301852" y="137.549293" transform="rotate(-0 81.301852 137.549293)">ﻊﻴﺑ</text>
   </g>
   <g id="text_21">
    <text style="font-size: 13px; font-family: 'DejaVu Sans'; text-anchor: middle; fill: #10243a" x="65.578361" y="111.904301" transform="rotate(-0 65.578361 111.904301)">ﻊﻛﺭ</text>
   </g>
   <g id="text_22">
    <text style="font-size: 13px; font-family: 'DejaVu Sans'; text-anchor: middle; fill: #10243a" x="177.098084" y="91.519933" transform="rotate(-0 177.098084 91.519933)">ﻦﻠﻋ</text>
   </g>
   <g id="text_23">
    <text style="font-size: 13px; font-family: 'DejaVu Sans'; text-anchor: middle; fill: #10243a" x="137.370134" y="70.4409" transform="rotate(-0 137.370134 70.4409)">ﺽﺮﻣ</text>
   </g>
   <g id="text_24">
    <text style="font-size: 13px; font-family: 'DejaVu Sans'; text-anchor: middle; fill: #10243a" x="74.079701" y="81.533006" transform="rotate(-0 74.079701 81.533006)">ﺮﻬﻃ</text>
   </g>
   <g id="text_25">
    <text style="font-size: 13px; font-family: 'DejaVu Sans'; text-anchor: middle; fill: #10243a" x="333.882411" y="264.094993" transform="rotate(-0 333.882411 264.094993)">ﻞﻓﺀ</text>
   </g>
   <g id="text_26">
    <text style="font-size: 13px; font-family: 'DejaVu Sans'; text-anchor: middle; fill: #10243a" x="275.683571" y="219.812567" transform="rotate(-0 275.683571 219.812567)">ﻲﻟﺀ</text>
   </g>
   <g id="text_27">
    <text style="font-size: 13px; font-family: 'DejaVu Sans'; text-anchor: middle; fill: #10243a" x="332.938643" y="227.523503" transform="rotate(-0 332.938643 227.523503)">ﻒﻗﻭ</text>
   </g>
   <g id="text_28">
    <text style="font-size: 13px; font-family: 'DejaVu Sans'; text-anchor: middle; fill: #10243a" x="200.945686" y="257.912895" transform="rotate(-0 200.945686 257.912895)">ﻕﺭﻭ</text>
   </g>
   <g id="text_29">
    <text style="font-size: 13px; font-family: 'DejaVu Sans'; text-anchor: middle; fill: #10243a" x="236.11385" y="297.730805" transform="rotate(-0 236.11385 297.730805)">ﺀﻲﻫ</text>
   </g>
   <g id="text_30">
    <text style="font-size: 13px; font-family: 'DejaVu Sans'; text-anchor: middle; fill: #10243a" x="297.976081" y="299.354407" transform="rotate(-0 297.976081 299.354407)">ﻑﺮﺧﺯ</text>
   </g>
  </g>
 </g>
 <defs>
  <clipPath id="pe556f58e82">
   <rect x="7.2" y="52.765094" width="684" height="464.988"/>
  </clipPath>
 </defs>
</svg>
